<svg xmlns="http://www.w3.org/2000/svg" width="392" height="379" version="1" viewBox="0 0 3920 3790"><path d="M706 3658c-95-48-294-257-338-354-11-24-9-29 32-68 25-22 133-122 240-221 396-367 415-386 539-539 122-150 168-273 159-425-4-69-10-89-48-162l-44-84-1-155c0-182 7-266 23-282 7-7 12-17 12-23 0-38 114-254 187-355 179-246 457-525 643-644 25-16 58-38 73-49 108-73 336-158 478-178 290-40 530 38 749 246 186 176 258 306 295 535 19 118 19 187 0 319-42 293-189 602-420 881-294 355-519 537-755 612-105 32-269 32-390-1-47-13-94-27-105-32-94-41-134-48-232-38-89 9-103 14-168 54-88 56-144 113-391 405-184 216-302 367-414 528-24 34-49 62-54 61-6 0-38-14-70-31z"/></svg>